<?xml version="1.0" encoding="UTF-8"?>
<!DOCTYPE svg PUBLIC "-//W3C//DTD SVG 1.1//EN" "http://www.w3.org/Graphics/SVG/1.1/DTD/svg11.dtd">
<svg xmlns="http://www.w3.org/2000/svg" version="1.1" width="64px" height="64px" style="shape-rendering:geometricPrecision; text-rendering:geometricPrecision; image-rendering:optimizeQuality; fill-rule:evenodd; clip-rule:evenodd" xmlns:xlink="http://www.w3.org/1999/xlink">
<g><path style="opacity:0.808" fill="#946c9e" d="M 30.5,0.5 C 33.817,1.08192 36.817,2.41525 39.5,4.5C 43.7332,1.6383 48.3999,0.804966 53.5,2C 56,3.16667 57.8333,5 59,7.5C 59.8538,11.6251 59.5204,15.6251 58,19.5C 52.5,25 47,30.5 41.5,36C 40.1667,36.6667 38.8333,36.6667 37.5,36C 31.301,30.1356 25.4677,23.9689 20,17.5C 17.4815,7.8385 20.9815,2.17184 30.5,0.5 Z"/></g>
<g><path style="opacity:1" fill="#e97598" d="M 27.5,3.5 C 32.3765,2.85671 36.2099,4.52337 39,8.5C 41.1124,7.39204 42.9458,5.89204 44.5,4C 54.9097,3.0688 58.743,7.5688 56,17.5C 50.652,23.015 45.152,28.3483 39.5,33.5C 33.848,28.3483 28.348,23.015 23,17.5C 20.2267,11.3946 21.7267,6.72792 27.5,3.5 Z"/></g>
<g><path style="opacity:0.844" fill="#9170a1" d="M 63.5,41.5 C 63.5,43.8333 63.5,46.1667 63.5,48.5C 54.6643,53.918 45.3309,58.2514 35.5,61.5C 29.1951,59.8511 23.1951,57.3511 17.5,54C 13.1428,54.1746 8.80945,54.508 4.5,55C 3.19126,48.8888 3.19126,42.7221 4.5,36.5C 15.112,32.8274 25.112,33.994 34.5,40C 38.6967,39.8005 42.3633,40.9671 45.5,43.5C 51.3621,40.8571 57.3621,40.1904 63.5,41.5 Z"/></g>
<g><path style="opacity:1" fill="#f7ecdf" d="M 45.5,54.5 C 44.7354,54.0766 43.9021,53.7432 43,53.5C 40.7916,55.1861 38.2916,56.1861 35.5,56.5C 29.7952,54.8145 24.4619,52.3145 19.5,49C 15.9733,48.1925 12.6399,48.3592 9.5,49.5C 6.88747,50.0955 6.88747,50.9288 9.5,52C 8.20677,52.49 6.87344,52.6567 5.5,52.5C 5.19749,47.57 5.53082,42.7367 6.5,38C 11.8127,37.0013 17.146,36.668 22.5,37C 27.9507,40.7292 33.9507,42.7292 40.5,43C 42.0368,44.1096 42.7035,45.6096 42.5,47.5C 39.9716,48.0114 37.4716,48.6781 35,49.5C 32.2358,48.7856 29.5691,47.7856 27,46.5C 25.3925,46.9739 25.2258,47.6406 26.5,48.5C 34.0567,53.1289 40.7234,52.1289 46.5,45.5C 50.3573,44.5774 54.1906,43.5774 58,42.5C 61.9354,43.3106 62.4354,45.144 59.5,48C 54.9317,50.4518 50.265,52.6185 45.5,54.5 Z"/></g>
<g><path style="opacity:1" fill="#9778a6" d="M 7.5,39.5 C 8.97782,39.238 10.3112,39.5713 11.5,40.5C 10.8333,40.8333 10.1667,41.1667 9.5,41.5C 8.28665,41.2528 7.61998,40.5862 7.5,39.5 Z"/></g>
<g><path style="opacity:1" fill="#9778a4" d="M 7.5,44.5 C 8.97782,44.238 10.3112,44.5713 11.5,45.5C 10.8333,45.8333 10.1667,46.1667 9.5,46.5C 8.28665,46.2528 7.61998,45.5862 7.5,44.5 Z"/></g>
<g><path style="opacity:1" fill="#e9d2bd" d="M 9.5,49.5 C 12.6399,48.3592 15.9733,48.1925 19.5,49C 24.4619,52.3145 29.7952,54.8145 35.5,56.5C 38.2916,56.1861 40.7916,55.1861 43,53.5C 43.9021,53.7432 44.7354,54.0766 45.5,54.5C 42.6579,57.3361 39.1579,59.0027 35,59.5C 29.8157,57.1586 24.649,54.6586 19.5,52C 15.9439,51.7777 12.6105,50.9444 9.5,49.5 Z"/></g>
</svg>
